<svg width="512" height="512" viewBox="0 0 512 512" fill="none" xmlns="http://www.w3.org/2000/svg">
<path fill-rule="evenodd" clip-rule="evenodd" d="M78 80C78 70.0589 86.0589 62 96 62H432C441.017 62 449.665 65.5821 456.042 71.9584C462.418 78.3346 466 86.9827 466 96V130C466 146.974 459.257 163.253 447.255 175.255C435.253 187.257 418.974 194 402 194H386V272C386 284.87 383.465 297.613 378.54 309.503C373.615 321.393 366.397 332.196 357.296 341.296C348.196 350.397 337.393 357.615 325.503 362.54C313.613 367.465 300.87 370 288 370H176C150.009 370 125.082 359.675 106.704 341.296C88.325 322.918 78 297.991 78 272V80ZM386 158H402C409.426 158 416.548 155.05 421.799 149.799C427.05 144.548 430 137.426 430 130V98H386V158ZM350 98V272C350 280.142 348.396 288.204 345.281 295.726C342.165 303.249 337.598 310.083 331.841 315.841C326.083 321.598 319.249 326.165 311.726 329.281C304.204 332.396 296.142 334 288 334H176C159.557 334 143.787 327.468 132.159 315.841C120.532 304.213 114 288.443 114 272V98H350ZM46 416C46 406.059 54.0589 398 64 398H400C409.941 398 418 406.059 418 416C418 425.941 409.941 434 400 434H64C54.0589 434 46 425.941 46 416Z" fill="currentColor"/>
</svg>
