
<svg width="123" height="138" viewBox="0 0 123 138" fill="none" xmlns="http://www.w3.org/2000/svg">
<path d="M54 6C28.0466 6 7 28.2231 7 55.632C7 83.0409 54 138 54 138C54 138 101 83.0409 101 55.632C101 28.2231 79.9534 6 54 6ZM54 33.5786C58.1543 33.5786 62.1387 35.3206 65.0771 38.4218C68.0155 41.5229 69.6674 45.7293 69.6698 50.1163C69.6698 54.5049 68.0189 58.7137 65.0802 61.8169C62.1416 64.9201 58.1559 66.6634 54 66.6634C49.8441 66.6634 45.8584 64.9201 42.9198 61.8169C39.9811 58.7137 38.3302 54.5049 38.3302 50.1163C38.3326 45.7293 39.9845 41.5229 42.9229 38.4218C45.8613 35.3206 49.8457 33.5786 54 33.5786Z" fill="#4F8337"/>
<g filter="url(#filter0_d_1072_4567)">
<rect x="16" y="16.0304" width="76" height="76.231" rx="38" fill="#4F8337"/>
<rect x="17.5" y="17.5304" width="73" height="73.231" rx="36.5" stroke="white" stroke-width="3"/>
<path d="M37.0884 40.8459V37.2359H40.6984C42.6681 37.2359 44.575 37.6187 46.4206 38.3851C48.266 39.1514 49.8918 40.2379 51.2991 41.6452C52.2687 42.6148 53.0732 43.6774 53.7135 44.833C54.3548 45.9904 54.8477 47.2265 55.1921 48.5415L55.2949 48.9338L55.5305 48.6038C55.6841 48.3888 55.8533 48.1812 56.0381 47.981C56.2261 47.7773 56.4302 47.5653 56.6503 47.3452C58.0576 45.9379 59.6834 44.8514 61.5288 44.0851C63.374 43.3189 65.2967 42.9359 67.2984 42.9359H70.9084V46.5459C70.9084 48.5476 70.5254 50.4703 69.7592 52.3155C68.9929 54.161 67.9064 55.7867 66.4991 57.194C65.0918 58.6014 63.4741 59.6797 61.6451 60.4301C59.8157 61.1806 57.9007 61.5559 55.8984 61.5559H55.7084V61.7459V71.0559H52.2884V56.0934V55.9034H52.0984C50.0967 55.9034 48.174 55.5204 46.3288 54.7542C44.4834 53.9879 42.8576 52.9014 41.4503 51.494C40.0432 50.087 38.9649 48.4617 38.2144 46.6168C37.4637 44.7713 37.0884 42.8481 37.0884 40.8459ZM52.0984 52.4359H52.2884V52.2459C52.2884 50.7008 51.9905 49.2267 51.3945 47.8253C50.799 46.425 49.9539 45.1776 48.8603 44.084C47.7667 42.9905 46.5193 42.1453 45.119 41.5498C43.7177 40.9538 42.2436 40.6559 40.6984 40.6559H40.5084V40.8459C40.5084 42.3903 40.7982 43.8714 41.3776 45.2878C41.9572 46.7048 42.7948 47.961 43.8891 49.0552C44.9834 50.1495 46.2395 50.9871 47.6565 51.5668C49.0729 52.1462 50.554 52.4359 52.0984 52.4359ZM55.7084 57.9459V58.1359H55.8984C57.4429 58.1359 58.9163 57.8462 60.3173 57.2665C61.7184 56.6867 62.9664 55.8492 64.0603 54.7552C65.1542 53.6613 65.9994 52.4057 66.5948 50.9895C67.1905 49.5728 67.4884 48.091 67.4884 46.5459V46.3559H67.2984C65.7533 46.3559 64.2716 46.6538 62.8548 47.2495C61.4386 47.8449 60.183 48.6901 59.0891 49.784C57.9951 50.878 57.1576 52.1259 56.5779 53.527C55.9982 54.928 55.7084 56.4015 55.7084 57.9459Z" fill="white" stroke="white" stroke-width="0.38"/>
</g>
<defs>
<filter id="filter0_d_1072_4567" x="0.799999" y="0.830395" width="121.6" height="121.831" filterUnits="userSpaceOnUse" color-interpolation-filters="sRGB">
<feFlood flood-opacity="0" result="BackgroundImageFix"/>
<feColorMatrix in="SourceAlpha" type="matrix" values="0 0 0 0 0 0 0 0 0 0 0 0 0 0 0 0 0 0 127 0" result="hardAlpha"/>
<feOffset dx="7.6" dy="7.6"/>
<feGaussianBlur stdDeviation="11.4"/>
<feComposite in2="hardAlpha" operator="out"/>
<feColorMatrix type="matrix" values="0 0 0 0 0.277718 0 0 0 0 0.277718 0 0 0 0 0.277718 0 0 0 0.2 0"/>
<feBlend mode="normal" in2="BackgroundImageFix" result="effect1_dropShadow_1072_4567"/>
<feBlend mode="normal" in="SourceGraphic" in2="effect1_dropShadow_1072_4567" result="shape"/>
</filter>
</defs>
</svg>
