<svg width="12" height="12" viewBox="0 0 12 12" fill="none" xmlns="http://www.w3.org/2000/svg">
<g id="navigate-circle-outline 1">
<path id="Vector" d="M7.8927 3.77341L3.52091 5.70349C3.27552 5.81599 3.35802 6.18794 3.62802 6.18794H5.71864C5.74351 6.18794 5.76735 6.19782 5.78493 6.2154C5.80251 6.23298 5.81239 6.25683 5.81239 6.28169V8.37185C5.81239 8.64185 6.18739 8.72341 6.29942 8.47873L8.22645 4.10716C8.24802 4.06045 8.25475 4.00825 8.24572 3.9576C8.23669 3.90695 8.21235 3.86028 8.17596 3.8239C8.13958 3.78752 8.09292 3.76317 8.04227 3.75415C7.99162 3.74512 7.93941 3.75184 7.8927 3.77341Z" fill="#6E6E6E"/>
<path id="Vector_2" d="M10.5 6C10.5 3.51562 8.48438 1.5 6 1.5C3.51562 1.5 1.5 3.51562 1.5 6C1.5 8.48438 3.51562 10.5 6 10.5C8.48438 10.5 10.5 8.48438 10.5 6Z" stroke="#6E6E6E" stroke-width="0.75" stroke-miterlimit="10"/>
</g>
</svg>
