<svg width="512" height="512" viewBox="0 0 512 512" fill="none" xmlns="http://www.w3.org/2000/svg">
<g clip-path="url(#clip0_570_2851)">
<path fill-rule="evenodd" clip-rule="evenodd" d="M210.939 85.3303C215.028 80.7599 221.177 78.6076 227.225 79.6297C267.822 86.4912 306.914 113.492 325.216 127.604C390.1 131.683 436 154.875 466.065 181.042C481.443 194.426 492.637 208.552 500.088 221.203C507.111 233.125 512 245.77 512 256C512 266.398 507.18 279.126 500.096 291.194C492.62 303.927 481.391 318.042 465.971 331.372C435.829 357.43 389.841 380.346 324.842 384.415C306.405 398.677 267.573 425.545 227.227 432.37C221.179 433.393 215.03 431.241 210.939 426.671C206.849 422.1 205.39 415.751 207.075 409.853L218.126 371.173C178.134 356.705 143.667 328.589 120.873 309.616C116.573 313.164 112.166 316.582 107.656 319.864C87.2666 334.755 65.2083 342.915 48.5984 347.375C40.226 349.623 33.0593 350.979 27.9194 351.779C25.3449 352.179 23.2658 352.443 21.7829 352.609C21.0411 352.693 20.4473 352.752 20.0141 352.793C19.7974 352.813 19.6208 352.828 19.4857 352.84C19.4182 352.845 19.3611 352.85 19.3145 352.854L19.2526 352.859L19.2167 352.861C19.2152 352.861 19.2137 352.862 19.1774 352.399L19.172 352.402L19.2067 352.862C13.5734 353.288 8.07073 351.023 4.36888 346.756C0.667026 342.488 -0.797528 336.721 0.419725 331.204L0.81618 331.292L0.821774 331.288C0.420991 331.198 0.421248 331.197 0.421507 331.196L0.428459 331.165L0.44147 331.106C0.451575 331.061 0.464546 331.004 0.480415 330.934C0.512148 330.795 0.555482 330.607 0.61065 330.373C0.72096 329.905 0.878733 329.252 1.08585 328.431C1.49981 326.79 2.1125 324.475 2.93931 321.634C4.58857 315.966 7.11296 308.125 10.6462 299.323C15.8817 286.279 23.7174 270.137 34.8866 255.833C23.7173 241.532 15.8817 225.391 10.6464 212.349C7.11306 203.547 4.58863 195.706 2.93935 190.039C2.11253 187.197 1.49983 184.882 1.08586 183.242C0.878743 182.421 0.720968 181.767 0.610656 181.299C0.555488 181.065 0.512152 180.877 0.480417 180.738C0.464548 180.669 0.451577 180.611 0.441472 180.566L0.428461 180.508L0.421507 180.477C0.421356 180.476 0.421206 180.475 0.5 180.457V180.451L0.419725 180.469C-0.797528 174.952 0.667026 169.184 4.36888 164.917C8.07073 160.649 13.5734 158.385 19.2067 158.811L19.1789 159.179L19.1844 159.184C19.2139 158.811 19.2153 158.811 19.2167 158.811L19.2526 158.814L19.3145 158.819C19.3611 158.823 19.4182 158.827 19.4857 158.833C19.6208 158.844 19.7974 158.86 20.0141 158.88C20.4473 158.921 21.0411 158.98 21.7829 159.063C23.2658 159.23 25.3449 159.493 27.9194 159.894C33.0593 160.694 40.226 162.049 48.5984 164.297C65.2071 168.757 87.2634 176.916 107.652 191.806C112.237 195.143 116.717 198.62 121.087 202.231C143.849 183.305 178.2 155.254 218.125 140.821L207.075 102.147C205.39 96.2499 206.849 89.9007 210.939 85.3303ZM44.2656 200.201C57.3283 204.138 72.7024 210.512 86.5961 220.661L86.6211 220.679C94.3032 226.271 101.648 232.311 108.618 238.768C115.127 244.799 125.076 245.137 131.979 239.562C135.333 236.852 138.86 233.939 142.55 230.891L142.552 230.889L142.554 230.888L142.562 230.881L142.562 230.881C169.25 208.835 204.433 179.771 244.305 170.17C249.037 169.031 253.099 166.01 255.551 161.806C258.004 157.602 258.634 152.579 257.297 147.9L250.433 123.874C274.623 134.32 296.432 150.245 307.454 159.075C310.41 161.444 314.043 162.811 317.828 162.979C330.108 163.525 341.553 164.83 352.203 166.745C339.485 194.698 332.854 225.126 332.854 256C332.854 286.871 339.484 317.297 352.2 345.248C341.441 347.174 329.868 348.488 317.44 349.041C313.648 349.21 310.008 350.582 307.049 352.959C295.879 361.931 274.317 377.697 250.448 388.073L257.297 364.1C258.634 359.422 258.004 354.401 255.554 350.198C253.103 345.995 249.044 342.973 244.314 341.832C204.232 332.159 168.741 302.799 142.032 280.704L142.032 280.704L142.03 280.702L142.027 280.699L142.021 280.694L142.014 280.688C138.449 277.74 135.041 274.921 131.8 272.295C124.898 266.705 114.938 267.036 108.422 273.07C101.514 279.468 94.2351 285.452 86.6222 290.992L86.5961 291.011C72.7022 301.161 57.3278 307.535 44.2649 311.472C50.4243 296.406 59.3544 279.964 71.1603 268.819C74.7351 265.445 76.7609 260.746 76.7605 255.83C76.7601 250.914 74.7334 246.215 71.158 242.841C59.3542 231.703 50.4249 215.265 44.2656 200.201ZM387.341 335.98C410.857 327.565 429.019 316.099 442.61 304.349C455.132 293.524 463.828 282.414 469.291 273.109C472.026 268.451 473.864 264.393 474.98 261.195C475.537 259.602 475.88 258.321 476.075 257.364C476.252 256.501 476.275 256.064 476.279 256.003C476.278 256 476.277 255.992 476.276 255.981C476.255 255.776 476.092 254.224 475.009 251.169C473.893 248.02 472.051 243.986 469.31 239.333C463.835 230.038 455.129 218.879 442.614 207.987C429.003 196.14 410.829 184.559 387.315 176.073C375.012 200.866 368.575 228.217 368.575 256C368.575 283.803 375.021 311.173 387.341 335.98ZM414.76 255.99C423.528 255.99 430.636 248.882 430.636 240.114C430.636 231.346 423.528 224.238 414.76 224.238C405.992 224.238 398.884 231.346 398.884 240.114C398.884 248.882 405.992 255.99 414.76 255.99Z" fill="currentColor"/>
</g>
<defs>
<clipPath id="clip0_570_2851">
<rect width="512" height="512" fill="currentColor"/>
</clipPath>
</defs>
</svg>
