<svg width="512" height="512" viewBox="0 0 512 512" fill="none" xmlns="http://www.w3.org/2000/svg">
<path d="M244.667 448C239.144 448 234.667 443.523 234.667 438V287.867C234.667 282.344 230.185 277.898 224.672 277.583C205.49 276.489 186.955 272.228 169.067 264.8C148.089 256.089 129.6 243.733 113.6 227.733C97.6 211.733 85.3333 193.244 76.8 172.267C68.2667 151.289 64 129.422 64 106.667V74C64 68.4772 68.4772 64 74 64H106.667C129.067 64 150.756 68.3556 171.733 77.0667C192.711 85.7778 211.2 98.1333 227.2 114.133C238.222 125.156 247.378 137.244 254.667 150.4C260.485 160.902 265.227 171.969 268.893 183.604C270.003 187.125 274.829 188.046 277.333 185.333V185.333C279.467 183.022 281.778 180.622 284.267 178.133C300.267 162.133 318.756 149.778 339.733 141.067C360.711 132.356 382.578 128 405.333 128H438C443.523 128 448 132.477 448 138V170.667C448 193.422 443.644 215.289 434.933 236.267C426.222 257.244 413.867 275.733 397.867 291.733C381.867 307.733 363.467 320 342.667 328.533C324.932 335.809 306.486 339.983 287.329 341.055C281.814 341.364 277.333 345.81 277.333 351.333V438C277.333 443.523 272.856 448 267.333 448H244.667ZM224.676 234.295C230.183 234.708 234.71 230.182 234.284 224.676C233.244 211.224 230.082 198.287 224.8 185.867C218.222 170.4 208.889 156.622 196.8 144.533C184.711 132.444 170.933 123.111 155.467 116.533C143.046 111.251 130.11 108.09 116.657 107.049C111.151 106.624 106.625 111.15 107.038 116.658C108.05 130.142 111.126 143.167 116.267 155.733C122.667 171.378 131.911 185.244 144 197.333C156.089 209.422 169.956 218.667 185.6 225.067C198.166 230.207 211.192 233.284 224.676 234.295ZM277.706 288.676C277.291 294.183 281.817 298.709 287.324 298.294C300.777 297.282 313.713 294.206 326.133 289.067C341.6 282.667 355.378 273.422 367.467 261.333C379.556 249.244 388.889 235.378 395.467 219.733C400.75 207.167 403.912 194.141 404.951 180.657C405.376 175.151 400.849 170.624 395.343 171.049C381.859 172.088 368.833 175.25 356.267 180.533C340.622 187.111 326.756 196.444 314.667 208.533C302.578 220.622 293.333 234.4 286.933 249.867C281.794 262.287 278.718 275.223 277.706 288.676Z" fill="currentColor"/>
</svg>
