<svg width="150" height="180" viewBox="0 0 184 237" fill="none" xmlns="http://www.w3.org/2000/svg">
<rect x="2" y="2" width="180" height="233" rx="6" stroke="#4F8337" stroke-width="4"/>
<rect x="6" y="6" width="172" height="225" rx="2" fill="#4F8337" stroke="white" stroke-width="4" stroke-linejoin="round"/>
<path d="M55.9952 68.6001L71.0398 68.6001L71.0398 179.599L91.5552 179.599L112.071 179.599L112.071 68.6001L127.005 68.6001C127.591 68.6 128.165 68.4317 128.655 68.116C129.144 67.8003 129.528 67.3511 129.759 66.8241C129.989 66.2971 130.057 65.7156 129.952 65.1516C129.848 64.5877 129.576 64.066 129.171 63.6515L93.6661 26.5039C93.3864 26.2178 93.0502 25.99 92.6779 25.8345C92.3056 25.6789 91.9049 25.5986 91.5 25.5986C91.0951 25.5986 90.6943 25.6789 90.322 25.8345C89.9497 25.99 89.6136 26.2178 89.3339 26.5039L53.8291 63.6515C53.424 64.066 53.1524 64.5877 53.0479 65.1516C52.9434 65.7156 53.0107 66.2971 53.2414 66.8241C53.472 67.3511 53.8559 67.8003 54.3455 68.116C54.835 68.4317 55.4086 68.6 55.9952 68.6001Z" fill="white"/>
<path d="M156.893 211.639C155.309 211.639 153.901 211.359 152.669 210.799C151.453 210.239 150.501 209.463 149.813 208.471C149.125 207.463 148.781 206.319 148.781 205.039C148.781 203.743 149.125 202.607 149.813 201.631C150.501 200.639 151.453 199.863 152.669 199.303C153.901 198.727 155.309 198.439 156.893 198.439C158.477 198.439 159.869 198.727 161.069 199.303C162.285 199.863 163.237 200.639 163.925 201.631C164.629 202.607 164.981 203.743 164.981 205.039C164.981 206.319 164.629 207.463 163.925 208.471C163.237 209.463 162.285 210.239 161.069 210.799C159.869 211.359 158.477 211.639 156.893 211.639ZM156.893 208.663C157.773 208.663 158.557 208.511 159.245 208.207C159.949 207.903 160.509 207.479 160.925 206.935C161.357 206.375 161.557 205.743 161.525 205.039C161.557 204.319 161.357 203.687 160.925 203.143C160.509 202.599 159.949 202.175 159.245 201.871C158.557 201.551 157.773 201.391 156.893 201.391C156.013 201.391 155.213 201.551 154.493 201.871C153.789 202.175 153.229 202.599 152.813 203.143C152.413 203.687 152.221 204.319 152.237 205.039C152.221 205.743 152.413 206.375 152.813 206.935C153.229 207.479 153.789 207.903 154.493 208.207C155.213 208.511 156.013 208.663 156.893 208.663Z" fill="#FFF9F5"/>
<path d="M130.031 211.399V194.599H139.151C140.335 194.599 141.367 194.831 142.247 195.295C143.143 195.743 143.839 196.367 144.335 197.167C144.831 197.951 145.079 198.863 145.079 199.903C145.079 200.959 144.807 201.903 144.263 202.735C143.735 203.567 143.015 204.231 142.103 204.727C141.191 205.223 140.175 205.471 139.055 205.471H133.511V211.399H130.031ZM141.743 211.399L136.439 203.815L140.207 203.215L145.991 211.423L141.743 211.399ZM133.511 202.543H138.719C139.215 202.543 139.671 202.439 140.087 202.231C140.503 202.007 140.823 201.711 141.047 201.343C141.287 200.959 141.407 200.527 141.407 200.047C141.407 199.583 141.279 199.175 141.023 198.823C140.783 198.471 140.439 198.199 139.991 198.007C139.559 197.815 139.087 197.719 138.575 197.719H133.511V202.543Z" fill="#FFF9F5"/>
<path d="M116.785 205.999V202.927H125.833V205.999H116.785Z" fill="#FFF9F5"/>
<path d="M98.4453 211.399V198.703H101.709L101.805 201.991L100.845 202.207C101.117 201.551 101.517 200.943 102.045 200.383C102.589 199.807 103.253 199.343 104.037 198.991C104.821 198.623 105.693 198.439 106.653 198.439C107.853 198.439 108.861 198.671 109.677 199.135C110.493 199.599 111.109 200.239 111.525 201.055C111.957 201.855 112.173 202.775 112.173 203.815V211.399H108.765V204.415C108.765 203.791 108.621 203.255 108.333 202.807C108.061 202.343 107.685 201.991 107.205 201.751C106.725 201.495 106.173 201.367 105.549 201.367C104.973 201.367 104.461 201.463 104.013 201.655C103.565 201.847 103.173 202.103 102.837 202.423C102.517 202.743 102.269 203.087 102.093 203.455C101.933 203.823 101.853 204.183 101.853 204.535V211.399H100.173C99.6453 211.399 99.2373 211.399 98.9493 211.399C98.6613 211.399 98.4933 211.399 98.4453 211.399Z" fill="#FFF9F5"/>
<path d="M83.7016 211.639C82.3096 211.639 81.0936 211.359 80.0536 210.799C79.0136 210.223 78.2056 209.439 77.6296 208.447C77.0536 207.455 76.7656 206.319 76.7656 205.039C76.7656 203.759 77.0616 202.623 77.6536 201.631C78.2616 200.639 79.0856 199.863 80.1256 199.303C81.1816 198.727 82.4056 198.439 83.7976 198.439C84.6296 198.439 85.3896 198.543 86.0776 198.751C86.7816 198.943 87.3896 199.207 87.9016 199.543C88.4296 199.863 88.8536 200.223 89.1736 200.623C89.4936 201.007 89.6856 201.383 89.7496 201.751L88.9096 201.799V198.703H92.2936V211.399H88.8616V208.015L89.5576 208.183C89.5096 208.599 89.3176 209.007 88.9816 209.407C88.6616 209.807 88.2376 210.175 87.7096 210.511C87.1816 210.847 86.5736 211.119 85.8856 211.327C85.1976 211.535 84.4696 211.639 83.7016 211.639ZM84.5656 208.687C85.4456 208.687 86.2136 208.535 86.8696 208.231C87.5416 207.911 88.0536 207.479 88.4056 206.935C88.7736 206.375 88.9576 205.743 88.9576 205.039C88.9576 204.319 88.7736 203.687 88.4056 203.143C88.0536 202.599 87.5416 202.175 86.8696 201.871C86.2136 201.551 85.4456 201.391 84.5656 201.391C83.7016 201.391 82.9336 201.551 82.2616 201.871C81.6056 202.175 81.0856 202.599 80.7016 203.143C80.3336 203.687 80.1496 204.319 80.1496 205.039C80.1496 205.743 80.3336 206.375 80.7016 206.935C81.0856 207.479 81.6056 207.911 82.2616 208.231C82.9336 208.535 83.7016 208.687 84.5656 208.687Z" fill="#FFF9F5"/>
<path d="M65.2465 216.919C63.8545 216.919 62.6145 216.759 61.5265 216.439C60.4545 216.135 59.5745 215.767 58.8865 215.335L60.0625 212.791C60.4145 212.951 60.8305 213.127 61.3105 213.319C61.7905 213.527 62.3265 213.695 62.9185 213.823C63.5265 213.967 64.1905 214.039 64.9105 214.039C65.7745 214.039 66.5265 213.879 67.1665 213.559C67.8065 213.255 68.2945 212.791 68.6305 212.167C68.9825 211.559 69.1585 210.799 69.1585 209.887V208.375L69.7345 208.495C69.6225 208.991 69.2785 209.463 68.7025 209.911C68.1265 210.359 67.3985 210.719 66.5185 210.991C65.6545 211.263 64.7185 211.399 63.7105 211.399C62.3825 211.399 61.1985 211.135 60.1585 210.607C59.1345 210.063 58.3345 209.311 57.7585 208.351C57.1825 207.375 56.8945 206.263 56.8945 205.015C56.8945 203.719 57.1985 202.583 57.8065 201.607C58.4145 200.615 59.2465 199.839 60.3025 199.279C61.3745 198.719 62.5985 198.439 63.9745 198.439C64.3745 198.439 64.8305 198.487 65.3425 198.583C65.8545 198.679 66.3665 198.815 66.8785 198.991C67.4065 199.167 67.8945 199.375 68.3425 199.615C68.8065 199.839 69.1745 200.111 69.4465 200.431C69.7345 200.735 69.8865 201.063 69.9025 201.415L69.2065 201.607L69.3025 198.703H72.5665V209.743C72.5665 210.943 72.3665 211.991 71.9665 212.887C71.5825 213.799 71.0545 214.551 70.3825 215.143C69.7265 215.735 68.9505 216.175 68.0545 216.463C67.1745 216.767 66.2385 216.919 65.2465 216.919ZM64.8865 208.663C65.7665 208.663 66.5345 208.511 67.1905 208.207C67.8465 207.903 68.3505 207.479 68.7025 206.935C69.0705 206.375 69.2545 205.735 69.2545 205.015C69.2545 204.295 69.0705 203.663 68.7025 203.119C68.3505 202.575 67.8465 202.151 67.1905 201.847C66.5505 201.527 65.7825 201.367 64.8865 201.367C63.9745 201.367 63.1665 201.527 62.4625 201.847C61.7745 202.151 61.2385 202.575 60.8545 203.119C60.4705 203.663 60.2785 204.295 60.2785 205.015C60.2785 205.719 60.4705 206.351 60.8545 206.911C61.2385 207.455 61.7745 207.887 62.4625 208.207C63.1665 208.511 63.9745 208.663 64.8865 208.663Z" fill="#FFF9F5"/>
<path d="M46.9078 211.639C45.2758 211.639 43.8358 211.359 42.5878 210.799C41.3558 210.239 40.3958 209.471 39.7078 208.495C39.0198 207.503 38.6758 206.383 38.6758 205.135C38.6758 204.111 38.8758 203.191 39.2758 202.375C39.6918 201.543 40.2598 200.839 40.9798 200.263C41.6998 199.687 42.5318 199.239 43.4758 198.919C44.4358 198.599 45.4438 198.439 46.4998 198.439C47.5398 198.439 48.5078 198.599 49.4038 198.919C50.2998 199.223 51.0838 199.655 51.7558 200.215C52.4278 200.775 52.9478 201.439 53.3158 202.207C53.6838 202.975 53.8518 203.823 53.8198 204.751L53.7958 205.927H41.1718L40.6198 203.719H50.9878L50.6038 204.151V203.623C50.5398 203.159 50.3158 202.751 49.9318 202.399C49.5478 202.047 49.0598 201.775 48.4678 201.583C47.8758 201.375 47.2358 201.271 46.5478 201.271C45.6678 201.271 44.8758 201.399 44.1718 201.655C43.4678 201.895 42.9078 202.279 42.4918 202.807C42.0918 203.335 41.8918 204.023 41.8918 204.871C41.8918 205.623 42.1158 206.295 42.5638 206.887C43.0278 207.463 43.6758 207.911 44.5078 208.231C45.3558 208.551 46.3318 208.711 47.4358 208.711C48.4918 208.711 49.3638 208.583 50.0518 208.327C50.7398 208.071 51.3078 207.799 51.7558 207.511L53.2678 209.767C52.7398 210.151 52.1318 210.487 51.4438 210.775C50.7558 211.047 50.0278 211.255 49.2598 211.399C48.4918 211.559 47.7078 211.639 46.9078 211.639Z" fill="#FFF9F5"/>
<path d="M27.44 211.399L20 194.599H23.792L27.656 203.551C27.768 203.855 27.912 204.207 28.088 204.607C28.264 205.007 28.448 205.439 28.64 205.903C28.848 206.367 29.04 206.839 29.216 207.319C29.392 207.783 29.552 208.239 29.696 208.687L28.904 208.711C29.064 208.151 29.264 207.575 29.504 206.983C29.744 206.391 29.984 205.807 30.224 205.231C30.464 204.655 30.688 204.111 30.896 203.599L34.52 194.599H38.336L31.016 211.399H27.44Z" fill="#FFF9F5"/>
</svg>
