<svg width="210" height="149" viewBox="0 0 302 214" fill="none" xmlns="http://www.w3.org/2000/svg">
<rect x="22.0703" y="64.296" width="257.862" height="149.704" rx="2" fill="white"/>
<path d="M150.097 0.457474C150.665 0.169874 151.335 0.169876 151.903 0.457476L274.296 62.4309C276.174 63.3818 275.498 66.2152 273.393 66.2152H28.6073C26.5024 66.2152 25.8259 63.3818 27.7039 62.431L150.097 0.457474Z" fill="white"/>
<rect x="33.1719" y="70.4844" width="235.662" height="131.516" fill="#4F8337"/>
<path d="M151 14L270.512 72.1704H31.4885L151 14Z" fill="#4F8337"/>
<line x1="28" y1="113" x2="275" y2="113" stroke="white" stroke-width="2"/>
<path d="M130.9 57.536H134.652V83.548H130.9V57.536ZM114.408 59.608H118.104V65.908H123.452V59.608H127.148V77.5H114.408V59.608ZM118.104 68.792V74.504H123.452V68.792H118.104ZM156.854 57.564H160.578V76.52H156.854V57.564ZM152.374 65.096H157.386V68.12H152.374V65.096ZM148.678 59.496H152.598C152.598 66.496 148.258 71.62 140.726 74L139.186 71.032C145.15 69.156 148.678 65.572 148.678 61.176V59.496ZM140.53 59.496H151.058V62.492H140.53V59.496ZM143.582 80.076H161.222V83.044H143.582V80.076ZM143.582 74.644H147.334V81.784H143.582V74.644ZM164.664 77.612H188.128V80.636H164.664V77.612ZM174.492 72.712H178.216V78.844H174.492V72.712ZM167.296 59.244H185.496V67.868H171.048V72.236H167.352V64.956H181.8V62.184H167.296V59.244ZM167.352 70.752H186.084V73.748H167.352V70.752Z" fill="white"/>
<path d="M102.911 187.756C98.8802 187.756 95.2907 187.063 92.142 185.678C89.0114 184.274 86.5374 182.349 84.7202 179.902C82.9209 177.437 81.9943 174.594 81.9403 171.374H93.7074C93.7794 172.723 94.2202 173.911 95.0298 174.936C95.8575 175.944 96.955 176.726 98.3224 177.284C99.6899 177.842 101.228 178.121 102.938 178.121C104.719 178.121 106.293 177.806 107.661 177.176C109.028 176.546 110.098 175.674 110.872 174.558C111.646 173.443 112.033 172.156 112.033 170.699C112.033 169.223 111.619 167.919 110.791 166.786C109.982 165.634 108.812 164.734 107.283 164.087C105.771 163.439 103.972 163.115 101.885 163.115H96.7301V154.533H101.885C103.648 154.533 105.205 154.227 106.554 153.615C107.921 153.003 108.983 152.158 109.739 151.078C110.494 149.981 110.872 148.703 110.872 147.246C110.872 145.86 110.539 144.646 109.874 143.602C109.226 142.541 108.308 141.713 107.121 141.119C105.951 140.526 104.584 140.229 103.018 140.229C101.435 140.229 99.9867 140.517 98.6733 141.092C97.3598 141.65 96.3073 142.451 95.5156 143.494C94.724 144.538 94.3011 145.761 94.2472 147.165H83.0469C83.1009 143.98 84.0095 141.173 85.7727 138.744C87.536 136.315 89.911 134.417 92.8977 133.05C95.9025 131.664 99.294 130.972 103.072 130.972C106.887 130.972 110.224 131.664 113.085 133.05C115.946 134.435 118.168 136.306 119.751 138.663C121.353 141.002 122.144 143.629 122.126 146.544C122.144 149.639 121.182 152.221 119.239 154.29C117.313 156.359 114.804 157.672 111.709 158.23V158.662C115.775 159.184 118.87 160.596 120.993 162.899C123.134 165.184 124.196 168.045 124.178 171.482C124.196 174.63 123.287 177.428 121.452 179.875C119.634 182.322 117.125 184.247 113.922 185.651C110.719 187.054 107.049 187.756 102.911 187.756ZM133.338 187V178.58L153.012 160.362C154.686 158.743 156.089 157.286 157.223 155.99C158.374 154.695 159.247 153.426 159.841 152.185C160.434 150.925 160.731 149.567 160.731 148.109C160.731 146.49 160.362 145.096 159.625 143.926C158.887 142.739 157.879 141.83 156.602 141.2C155.325 140.553 153.876 140.229 152.257 140.229C150.566 140.229 149.09 140.571 147.831 141.254C146.571 141.938 145.6 142.919 144.916 144.196C144.232 145.473 143.89 146.994 143.89 148.757H132.798C132.798 145.141 133.617 142.001 135.254 139.338C136.891 136.675 139.185 134.615 142.136 133.158C145.087 131.7 148.487 130.972 152.338 130.972C156.296 130.972 159.742 131.673 162.674 133.077C165.625 134.462 167.919 136.387 169.557 138.852C171.194 141.317 172.012 144.142 172.012 147.327C172.012 149.414 171.599 151.474 170.771 153.507C169.961 155.54 168.513 157.798 166.426 160.281C164.339 162.746 161.397 165.706 157.601 169.161L149.531 177.068V177.446H172.741V187H133.338ZM184.155 187L207.068 141.659V141.281H180.377V131.727H219.159V141.416L196.219 187H184.155Z" fill="white"/>
<path d="M120.032 88.0909L122.669 96.3793H122.77L125.412 88.0909H127.969L124.208 99H121.236L117.47 88.0909H120.032ZM132.045 99.1598C131.203 99.1598 130.479 98.9893 129.872 98.6484C129.268 98.304 128.803 97.8175 128.476 97.1889C128.149 96.5568 127.986 95.8093 127.986 94.9464C127.986 94.1048 128.149 93.3661 128.476 92.7305C128.803 92.0948 129.263 91.5994 129.856 91.2443C130.452 90.8892 131.152 90.7116 131.954 90.7116C132.494 90.7116 132.997 90.7987 133.462 90.9727C133.931 91.1431 134.339 91.4006 134.687 91.745C135.038 92.0895 135.312 92.5227 135.507 93.0447C135.703 93.5632 135.8 94.1705 135.8 94.8665V95.4897H128.891V94.0835H133.664C133.664 93.7567 133.593 93.4673 133.451 93.2152C133.309 92.9631 133.112 92.766 132.86 92.6239C132.611 92.4783 132.322 92.4055 131.992 92.4055C131.647 92.4055 131.342 92.4854 131.075 92.6452C130.813 92.8015 130.607 93.0128 130.458 93.2791C130.308 93.5419 130.232 93.8349 130.228 94.158V95.495C130.228 95.8999 130.303 96.2496 130.452 96.5444C130.605 96.8391 130.82 97.0664 131.097 97.2262C131.374 97.386 131.702 97.4659 132.082 97.4659C132.334 97.4659 132.565 97.4304 132.775 97.3594C132.984 97.2884 133.163 97.1818 133.313 97.0398C133.462 96.8977 133.575 96.7237 133.654 96.5178L135.752 96.6562C135.646 97.1605 135.427 97.6009 135.097 97.9773C134.77 98.3501 134.348 98.6413 133.829 98.8509C133.314 99.0568 132.72 99.1598 132.045 99.1598ZM140.967 102.239C140.232 102.239 139.602 102.137 139.076 101.935C138.554 101.736 138.139 101.464 137.83 101.12C137.521 100.776 137.32 100.388 137.228 99.9588L139.326 99.6765C139.39 99.8398 139.492 99.9925 139.63 100.135C139.769 100.277 139.951 100.39 140.179 100.475C140.41 100.564 140.69 100.609 141.02 100.609C141.514 100.609 141.921 100.488 142.24 100.246C142.563 100.009 142.725 99.609 142.725 99.0479V97.5511H142.629C142.53 97.7784 142.38 97.9933 142.182 98.1957C141.983 98.3981 141.727 98.5632 141.415 98.6911C141.102 98.8189 140.729 98.8828 140.296 98.8828C139.682 98.8828 139.122 98.7408 138.618 98.4567C138.117 98.169 137.718 97.7305 137.42 97.141C137.125 96.5479 136.977 95.7987 136.977 94.8931C136.977 93.9663 137.128 93.1921 137.43 92.5707C137.732 91.9492 138.133 91.484 138.634 91.1751C139.138 90.8661 139.69 90.7116 140.291 90.7116C140.749 90.7116 141.132 90.7898 141.441 90.946C141.75 91.0987 141.999 91.2905 142.187 91.5213C142.379 91.7486 142.526 91.9723 142.629 92.1925H142.714V90.8182H144.967V99.0799C144.967 99.7759 144.797 100.358 144.456 100.827C144.115 101.296 143.643 101.647 143.039 101.882C142.439 102.12 141.748 102.239 140.967 102.239ZM141.015 97.1783C141.381 97.1783 141.69 97.0877 141.942 96.9066C142.198 96.7219 142.393 96.4592 142.528 96.1183C142.666 95.7738 142.736 95.3619 142.736 94.8825C142.736 94.4031 142.668 93.9876 142.533 93.636C142.398 93.2809 142.203 93.0057 141.947 92.8104C141.692 92.6151 141.381 92.5174 141.015 92.5174C140.642 92.5174 140.328 92.6186 140.072 92.821C139.817 93.0199 139.623 93.2969 139.492 93.652C139.36 94.0071 139.295 94.4173 139.295 94.8825C139.295 95.3548 139.36 95.7631 139.492 96.1076C139.627 96.4485 139.82 96.7131 140.072 96.9013C140.328 97.0859 140.642 97.1783 141.015 97.1783ZM149.106 99.1545C148.584 99.1545 148.119 99.0639 147.711 98.8828C147.302 98.6982 146.979 98.4265 146.741 98.0678C146.507 97.7056 146.39 97.2546 146.39 96.7148C146.39 96.2603 146.473 95.8786 146.64 95.5696C146.807 95.2607 147.034 95.0121 147.322 94.8239C147.61 94.6357 147.936 94.4936 148.302 94.3977C148.671 94.3018 149.058 94.2344 149.463 94.1953C149.939 94.1456 150.323 94.0994 150.614 94.0568C150.905 94.0107 151.116 93.9432 151.248 93.8544C151.379 93.7656 151.445 93.6342 151.445 93.4602V93.4283C151.445 93.0909 151.338 92.8299 151.125 92.6452C150.916 92.4606 150.617 92.3683 150.23 92.3683C149.822 92.3683 149.497 92.4588 149.255 92.6399C149.014 92.8175 148.854 93.0412 148.776 93.3111L146.677 93.1406C146.784 92.6435 146.993 92.2138 147.306 91.8516C147.618 91.4858 148.021 91.2053 148.515 91.0099C149.012 90.8111 149.587 90.7116 150.241 90.7116C150.695 90.7116 151.13 90.7649 151.546 90.8714C151.965 90.978 152.336 91.1431 152.659 91.3668C152.986 91.5906 153.243 91.8782 153.432 92.2298C153.62 92.5778 153.714 92.995 153.714 93.4815V99H151.562V97.8654H151.498C151.367 98.1211 151.191 98.3466 150.971 98.5419C150.75 98.7337 150.486 98.8846 150.177 98.9947C149.868 99.1012 149.511 99.1545 149.106 99.1545ZM149.756 97.5884C150.09 97.5884 150.385 97.5227 150.64 97.3913C150.896 97.2564 151.097 97.0753 151.242 96.848C151.388 96.6207 151.461 96.3633 151.461 96.0756V95.2074C151.39 95.2536 151.292 95.2962 151.168 95.3352C151.047 95.3707 150.91 95.4045 150.758 95.4364C150.605 95.4648 150.452 95.4915 150.299 95.5163C150.147 95.5376 150.008 95.5572 149.884 95.5749C149.618 95.614 149.385 95.6761 149.186 95.7614C148.987 95.8466 148.833 95.962 148.723 96.1076C148.613 96.2496 148.558 96.4272 148.558 96.6403C148.558 96.9492 148.67 97.1854 148.893 97.3487C149.121 97.5085 149.408 97.5884 149.756 97.5884ZM157.744 94.2699V99H155.474V90.8182H157.637V92.2617H157.733C157.914 91.7859 158.218 91.4094 158.644 91.1325C159.07 90.8519 159.587 90.7116 160.194 90.7116C160.762 90.7116 161.257 90.8359 161.68 91.0845C162.103 91.3331 162.431 91.6882 162.665 92.1499C162.9 92.608 163.017 93.1548 163.017 93.7905V99H160.748V94.1953C160.751 93.6946 160.624 93.304 160.364 93.0234C160.105 92.7393 159.748 92.5973 159.294 92.5973C158.988 92.5973 158.718 92.663 158.484 92.7944C158.253 92.9258 158.072 93.1175 157.941 93.3697C157.813 93.6183 157.747 93.9183 157.744 94.2699ZM169.903 93.62V95.4205H164.928V93.62H169.903ZM171.837 99V90.8182H174.037V92.2457H174.122C174.271 91.7379 174.521 91.3544 174.873 91.0952C175.224 90.8324 175.629 90.701 176.087 90.701C176.201 90.701 176.324 90.7081 176.455 90.7223C176.586 90.7365 176.702 90.756 176.801 90.7809V92.7944C176.695 92.7624 176.547 92.734 176.359 92.7092C176.171 92.6843 175.999 92.6719 175.842 92.6719C175.509 92.6719 175.21 92.7447 174.947 92.8903C174.688 93.0323 174.482 93.2312 174.33 93.4869C174.18 93.7425 174.106 94.0373 174.106 94.3711V99H171.837ZM181.29 99.1598C180.463 99.1598 179.747 98.984 179.144 98.6325C178.543 98.2773 178.08 97.7837 177.753 97.1516C177.427 96.516 177.263 95.7791 177.263 94.9411C177.263 94.0959 177.427 93.3572 177.753 92.7251C178.08 92.0895 178.543 91.5959 179.144 91.2443C179.747 90.8892 180.463 90.7116 181.29 90.7116C182.118 90.7116 182.831 90.8892 183.432 91.2443C184.035 91.5959 184.5 92.0895 184.827 92.7251C185.154 93.3572 185.317 94.0959 185.317 94.9411C185.317 95.7791 185.154 96.516 184.827 97.1516C184.5 97.7837 184.035 98.2773 183.432 98.6325C182.831 98.984 182.118 99.1598 181.29 99.1598ZM181.301 97.402C181.677 97.402 181.992 97.2955 182.244 97.0824C182.496 96.8658 182.686 96.571 182.814 96.1982C182.945 95.8253 183.011 95.4009 183.011 94.9251C183.011 94.4492 182.945 94.0249 182.814 93.652C182.686 93.2791 182.496 92.9844 182.244 92.7678C181.992 92.5511 181.677 92.4428 181.301 92.4428C180.921 92.4428 180.601 92.5511 180.342 92.7678C180.086 92.9844 179.893 93.2791 179.761 93.652C179.634 94.0249 179.57 94.4492 179.57 94.9251C179.57 95.4009 179.634 95.8253 179.761 96.1982C179.893 96.571 180.086 96.8658 180.342 97.0824C180.601 97.2955 180.921 97.402 181.301 97.402Z" fill="white"/>
<path d="M148.444 60V47.5944C146.785 47.5944 145.191 47.2769 143.661 46.6417C142.131 46.0065 140.783 45.1056 139.617 43.9389C138.45 42.7722 137.556 41.4241 136.933 39.8944C136.311 38.3648 136 36.7704 136 35.1111V32H139.111C140.744 32 142.326 32.3176 143.856 32.9528C145.385 33.588 146.733 34.4889 147.9 35.6556C148.704 36.4593 149.371 37.3407 149.903 38.3C150.434 39.2593 150.843 40.2833 151.128 41.3722C151.257 41.1907 151.4 41.0157 151.556 40.8472C151.711 40.6787 151.88 40.5037 152.061 40.3222C153.228 39.1556 154.576 38.2546 156.106 37.6194C157.635 36.9843 159.23 36.6667 160.889 36.6667H164V39.7778C164 41.437 163.682 43.0315 163.047 44.5611C162.412 46.0907 161.511 47.4389 160.344 48.6056C159.178 49.7722 157.836 50.6667 156.319 51.2889C154.803 51.9111 153.215 52.2222 151.556 52.2222V60H148.444ZM148.444 44.4444C148.444 43.2 148.205 42.0139 147.725 40.8861C147.245 39.7583 146.565 38.7537 145.683 37.8722C144.802 36.9907 143.797 36.3102 142.669 35.8306C141.542 35.3509 140.356 35.1111 139.111 35.1111C139.111 36.3556 139.344 37.5481 139.811 38.6889C140.278 39.8296 140.952 40.8407 141.833 41.7222C142.715 42.6037 143.726 43.2778 144.867 43.7444C146.007 44.2111 147.2 44.4444 148.444 44.4444ZM151.556 49.1111C152.8 49.1111 153.986 48.8778 155.114 48.4111C156.242 47.9444 157.246 47.2704 158.128 46.3889C159.009 45.5074 159.69 44.4963 160.169 43.3556C160.649 42.2148 160.889 41.0222 160.889 39.7778C159.644 39.7778 158.452 40.0176 157.311 40.4972C156.17 40.9769 155.159 41.6574 154.278 42.5389C153.396 43.4204 152.722 44.425 152.256 45.5528C151.789 46.6806 151.556 47.8667 151.556 49.1111Z" fill="white"/>
</svg>
