<svg width="512" height="512" viewBox="0 0 512 512" fill="none" xmlns="http://www.w3.org/2000/svg">
<path d="M352 432H160" stroke="currentColor" stroke-width="32" stroke-linecap="round" stroke-linejoin="round"/>
<path fill-rule="evenodd" clip-rule="evenodd" d="M113.43 63C104.041 63 96.43 70.6112 96.43 80V94.8796C96.389 95.2072 96.3425 95.5909 96.2921 96.0283C96.1216 97.5058 95.9051 99.6006 95.698 102.225C95.2844 107.468 94.9053 114.865 95.0139 123.709C95.2297 141.28 97.3755 165.15 105.394 189.348C113.439 213.623 127.613 238.837 152.22 257.931C173.758 274.644 202.177 285.802 239 288.413V432H273V288.413C309.823 285.802 338.242 274.644 359.78 257.931C384.387 238.837 398.561 213.623 406.606 189.348C414.625 165.15 416.77 141.28 416.986 123.709C417.095 114.865 416.716 107.468 416.302 102.225C416.095 99.6006 415.878 97.5058 415.708 96.0283C415.658 95.5909 415.611 95.2072 415.57 94.8797V80C415.57 70.6112 407.959 63 398.57 63H113.43ZM130.253 98.449C130.323 97.9682 130.372 97.4847 130.401 97H381.599C381.628 97.4842 381.677 97.967 381.747 98.4472L381.747 98.4498L381.748 98.454L381.749 98.4635L381.751 98.4769L381.752 98.4792L381.763 98.5629C381.769 98.6058 381.776 98.6605 381.785 98.7268C381.817 98.9719 381.868 99.3747 381.932 99.9248C382.059 101.025 382.235 102.712 382.407 104.9C382.753 109.282 383.083 115.635 382.989 123.291C382.915 129.255 382.586 135.922 381.83 143H130.17C129.414 135.922 129.085 129.255 129.011 123.291C128.917 115.635 129.247 109.282 129.593 104.9C129.765 102.712 129.941 101.025 130.068 99.9248C130.132 99.3747 130.183 98.9719 130.215 98.7268C130.231 98.6043 130.243 98.5213 130.248 98.4792L130.251 98.4635L130.252 98.4544L130.252 98.454L130.253 98.449ZM137.132 177C137.307 177.551 137.486 178.102 137.668 178.652C144.205 198.377 155.143 217.163 173.064 231.069C190.849 244.87 216.969 255 256 255C295.031 255 321.151 244.87 338.936 231.069C356.857 217.163 367.795 198.377 374.332 178.652C374.514 178.102 374.693 177.551 374.868 177H137.132ZM130.249 98.4769L130.251 98.4636C130.249 98.4689 130.177 98.4642 120.224 97H120.22L130.249 98.4769Z" fill="currentColor"/>
</svg>
